<?xml version="1.0" encoding="UTF-8"?>
<svg id="Layer_2" data-name="Layer 2" xmlns="http://www.w3.org/2000/svg" xmlns:xlink="http://www.w3.org/1999/xlink" viewBox="0 0 376.42 48.87">
  <defs>
    <style>
      .cls-1 {
        fill: url(#linear-gradient);
      }

      .cls-1, .cls-2, .cls-3 {
        stroke-width: 0px;
      }

      .cls-2 {
        fill: url(#linear-gradient-2);
      }

      .cls-3 {
        fill: url(#New_Gradient_Swatch);
      }

      .cls-4 {
        fill: #fff;
        font-family: Montserrat-BlackItalic, Montserrat;
        font-size: 22.84px;
        font-style: italic;
        font-weight: 800;
      }
    </style>
    <linearGradient id="New_Gradient_Swatch" data-name="New Gradient Swatch" x1="220.83" y1="1.7" x2="220.83" y2="44.45" gradientUnits="userSpaceOnUse">
      <stop offset="0" stop-color="#a2d240"/>
      <stop offset="1" stop-color="#1b8b00"/>
    </linearGradient>
    <linearGradient id="linear-gradient" x1="7.36" y1="1.62" x2="7.66" y2="46.88" gradientUnits="userSpaceOnUse">
      <stop offset="0" stop-color="#a2d240"/>
      <stop offset="1" stop-color="#1b8b00"/>
    </linearGradient>
    <linearGradient id="linear-gradient-2" x1="37.2" y1="-.13" x2="37.52" y2="48.55" xlink:href="#linear-gradient"/>
  </defs>
  <g id="OBJECTS">
    <g>
      <path class="cls-3" d="M87.07,17.67l-14.11,4.66,12.21,4.66-1.11,5.69-18.81-7.51,1.28-6.35,21.83-7.51-1.28,6.35Z"/>
      <path class="cls-3" d="M104.48,1.7h7.22l-21.17,38.87h-7.22L104.48,1.7Z"/>
      <path class="cls-3" d="M132.12,14.08l-13.66,22.36h-8.13l-4.75-22.36h7.76l2.72,13.7,8.29-13.7h7.76Z"/>
      <path class="cls-3" d="M157.17,14.08l-4.46,22.36h-7.43l.45-2.1c-1.73,1.61-3.88,2.48-6.48,2.48-4.83,0-9.45-3.67-9.45-10.19,0-7.43,5.45-12.91,12.13-12.91,3.01,0,5.45.91,6.85,3.05l.54-2.68h7.84ZM147.31,24.27c0-2.6-1.57-4.29-4.25-4.29-3.09,0-5.32,2.52-5.32,6.27,0,2.6,1.57,4.25,4.25,4.25,3.14,0,5.32-2.52,5.32-6.23Z"/>
      <path class="cls-3" d="M184.27,21.3c0,.87-.08,1.77-.29,2.76l-2.48,12.38h-7.84l2.31-11.64c.12-.54.17-1.03.17-1.49,0-1.94-.99-2.97-3.09-2.97-2.68,0-4.54,1.61-5.24,5.03l-2.23,11.06h-7.84l4.46-22.36h7.43l-.45,2.31c1.98-1.86,4.54-2.68,7.01-2.68,4.79,0,8.09,2.6,8.09,7.59Z"/>
      <path class="cls-3" d="M213.82,23.86c0,7.47-5.45,12.96-12.13,12.96-3.01,0-5.45-.91-6.85-3.05l-2.15,10.69h-7.84l6.07-30.37h7.43l-.45,2.1c1.73-1.61,3.88-2.48,6.48-2.48,4.83,0,9.45,3.67,9.45,10.15ZM205.9,24.27c0-2.6-1.57-4.29-4.25-4.29-3.09,0-5.32,2.52-5.32,6.27,0,2.6,1.57,4.25,4.25,4.25,3.09,0,5.32-2.52,5.32-6.23Z"/>
      <path class="cls-3" d="M241.67,21.38c0,.83-.08,1.73-.29,2.68l-2.48,12.38h-7.84l2.31-11.64c.12-.54.17-1.03.17-1.49,0-1.94-.99-2.97-3.09-2.97-2.68,0-4.54,1.61-5.24,5.03l-2.23,11.06h-7.84l6.11-30.61h7.84l-2.02,10.11c1.94-1.53,4.25-2.23,6.52-2.23,4.7,0,8.09,2.6,8.09,7.67Z"/>
      <path class="cls-3" d="M271.83,14.08l-4.46,22.36h-7.43l.45-2.31c-1.98,1.86-4.5,2.68-6.93,2.68-4.75,0-8-2.6-8-7.63,0-.87.08-1.77.29-2.76l2.48-12.34h7.84l-2.31,11.59c-.12.58-.17,1.07-.17,1.53,0,1.9.99,2.93,3.01,2.93,2.64,0,4.5-1.61,5.16-4.99l2.23-11.06h7.84Z"/>
      <path class="cls-3" d="M302.28,5.83l-6.11,30.61h-7.43l.45-2.19c-1.69,1.61-3.88,2.56-6.48,2.56-4.83,0-9.45-3.67-9.45-10.19,0-7.43,5.49-12.91,12.17-12.91,2.97,0,5.41.91,6.81,2.97l2.19-10.85h7.84ZM290.77,24.27c0-2.6-1.53-4.29-4.21-4.29-3.14,0-5.32,2.52-5.32,6.27,0,2.6,1.53,4.25,4.21,4.25,3.14,0,5.32-2.52,5.32-6.23Z"/>
      <path class="cls-3" d="M326.04,27.2h-16.42c.29,2.48,1.98,3.63,5.08,3.63,1.98,0,3.92-.62,5.41-1.82l3.26,4.91c-2.81,2.06-6.15,2.89-9.53,2.89-7.18,0-11.88-3.96-11.88-10.19,0-7.43,5.49-12.91,13.53-12.91,6.81,0,11.02,3.96,11.02,9.82,0,1.32-.21,2.56-.45,3.67ZM310.08,23.07h9.2c.04-2.39-1.65-3.8-4.17-3.8-2.64,0-4.29,1.57-5.03,3.8Z"/>
      <path class="cls-3" d="M355.13,14.08l-13.66,22.36h-8.13l-4.75-22.36h7.76l2.72,13.7,8.29-13.7h7.76Z"/>
      <path class="cls-3" d="M376.42,18.82l-1.28,6.35-21.83,7.51,1.28-6.35,14.11-4.66-12.21-4.66,1.16-5.69,18.77,7.51Z"/>
    </g>
    <g>
      <path class="cls-1" d="M3.89,9.53v10.04c0,1.61-.85,2.34-2.25,2.34H0v4.97h1.65c1.4,0,2.25.73,2.25,2.34v10.04c0,5.17,2.85,7.94,8.49,7.94h2.5v-4.87h-1.05c-2.5,0-3.69-1.36-3.69-3.7v-9.26c0-3.02-.95-4.34-2.95-4.97,2-.63,2.95-1.95,2.95-4.97v-9.26c0-2.34,1.2-3.7,3.69-3.7h1.05V1.58h-2.5C6.74,1.58,3.89,4.36,3.89,9.53Z"/>
      <path class="cls-2" d="M50.23,0H17.24v48.87h32.99c4.03,0,7.29-3.19,7.29-7.12V7.12c0-3.93-3.26-7.12-7.29-7.12ZM52.78,26.88h-1.7c-1.35,0-2.2.73-2.2,2.34v10.04c0,5.17-2.9,7.94-8.54,7.94h-2.5v-4.87h1.05c2.55,0,3.74-1.36,3.74-3.7v-9.26c0-3.02.9-4.34,2.9-4.97-2-.63-2.9-1.95-2.9-4.97v-9.26c0-2.34-1.2-3.7-3.74-3.7h-1.05V1.58h2.5c5.64,0,8.54,2.78,8.54,7.94v10.04c0,1.61.85,2.34,2.2,2.34h1.7v4.97Z"/>
    </g>
    <text class="cls-4" transform="translate(20.05 33.92) scale(1.21 1)"><tspan x="0" y="0">P</tspan></text>
  </g>
</svg>